<svg width="800" height="400" viewBox="0 0 800 400" xmlns="http://www.w3.org/2000/svg">
  <rect width="800" height="400" fill="#1a365d" />
  <rect x="40" y="40" width="720" height="320" rx="8" fill="#2d3748" />
  
  <!-- Header -->
  <rect x="60" y="60" width="680" height="60" rx="4" fill="#4a5568" />
  <circle cx="100" cy="90" r="15" fill="#6366f1" />
  <rect x="130" y="80" width="120" height="20" rx="4" fill="#e2e8f0" />
  <rect x="560" y="80" width="160" height="20" rx="4" fill="#4c1d95" />
  
  <!-- Sidebar -->
  <rect x="60" y="140" width="180" height="200" rx="4" fill="#4a5568" />
  <rect x="80" y="160" width="140" height="10" rx="2" fill="#e2e8f0" />
  <rect x="80" y="180" width="140" height="10" rx="2" fill="#a0aec0" />
  <rect x="80" y="200" width="140" height="10" rx="2" fill="#a0aec0" />
  <rect x="80" y="220" width="140" height="10" rx="2" fill="#a0aec0" />
  <rect x="80" y="240" width="140" height="10" rx="2" fill="#a0aec0" />
  <rect x="80" y="260" width="140" height="10" rx="2" fill="#a0aec0" />
  <rect x="80" y="280" width="140" height="10" rx="2" fill="#a0aec0" />
  <rect x="80" y="300" width="140" height="10" rx="2" fill="#a0aec0" />
  
  <!-- Main Content -->
  <rect x="260" y="140" width="480" height="90" rx="4" fill="#4a5568" />
  <rect x="280" y="160" width="100" height="50" rx="4" fill="#6366f1" />
  <rect x="400" y="160" width="100" height="50" rx="4" fill="#8b5cf6" />
  <rect x="520" y="160" width="100" height="50" rx="4" fill="#ec4899" />
  <rect x="640" y="160" width="80" height="50" rx="4" fill="#f59e0b" />
  
  <!-- Charts -->
  <rect x="260" y="250" width="230" height="90" rx="4" fill="#4a5568" />
  <path d="M280,310 Q330,270 380,290 T480,270" stroke="#6366f1" stroke-width="3" fill="none" />
  
  <rect x="510" y="250" width="230" height="90" rx="4" fill="#4a5568" />
  <circle cx="550" cy="290" r="30" fill="#8b5cf6" />
  <circle cx="550" cy="290" r="20" fill="#4a5568" />
  <path d="M550,260 A30,30 0 0,1 580,290 L550,290 Z" fill="#ec4899" />
  <path d="M550,290 A30,30 0 0,1 535,318 L550,290 Z" fill="#f59e0b" />
</svg>