<svg width="800" height="400" viewBox="0 0 800 400" xmlns="http://www.w3.org/2000/svg">
  <rect width="800" height="400" fill="#0f766e" />
  <rect x="40" y="40" width="720" height="320" rx="8" fill="#134e4a" />
  
  <!-- Header -->
  <rect x="60" y="60" width="680" height="60" rx="4" fill="#115e59" />
  <text x="80" y="100" font-family="Arial" font-size="24" font-weight="bold" fill="#f0fdfa">Finance Tracker</text>
  
  <!-- Main Content -->
  <rect x="60" y="140" width="320" height="200" rx="4" fill="#0f766e" />
  
  <!-- Chart -->
  <rect x="80" y="160" width="280" height="160" rx="4" fill="#14b8a6" opacity="0.2" />
  <text x="100" y="190" font-family="Arial" font-size="16" fill="#f0fdfa">Gastos Mensais</text>
  
  <!-- Chart Bars -->
  <rect x="100" y="210" width="30" height="90" rx="2" fill="#14b8a6" />
  <rect x="140" y="230" width="30" height="70" rx="2" fill="#14b8a6" />
  <rect x="180" y="200" width="30" height="100" rx="2" fill="#14b8a6" />
  <rect x="220" y="250" width="30" height="50" rx="2" fill="#14b8a6" />
  <rect x="260" y="180" width="30" height="120" rx="2" fill="#14b8a6" />
  <rect x="300" y="220" width="30" height="80" rx="2" fill="#14b8a6" />
  
  <!-- X-axis -->
  <line x1="100" y1="310" x2="330" y2="310" stroke="#f0fdfa" stroke-width="2" />
  
  <!-- Y-axis -->
  <line x1="100" y1="310" x2="100" y2="170" stroke="#f0fdfa" stroke-width="2" />
  
  <!-- Right Panel -->
  <rect x="400" y="140" width="340" height="200" rx="4" fill="#0f766e" />
  
  <!-- Transactions -->
  <rect x="420" y="160" width="300" height="40" rx="4" fill="#115e59" />
  <circle cx="440" cy="180" r="10" fill="#2dd4bf" />
  <text x="460" y="185" font-family="Arial" font-size="14" fill="#f0fdfa">Salário</text>
  <text x="680" y="185" font-family="Arial" font-size="14" fill="#f0fdfa" text-anchor="end">R$ 5.000</text>
  
  <rect x="420" y="210" width="300" height="40" rx="4" fill="#115e59" />
  <circle cx="440" cy="230" r="10" fill="#f43f5e" />
  <text x="460" y="235" font-family="Arial" font-size="14" fill="#f0fdfa">Aluguel</text>
  <text x="680" y="235" font-family="Arial" font-size="14" fill="#f0fdfa" text-anchor="end">R$ 1.200</text>
  
  <rect x="420" y="260" width="300" height="40" rx="4" fill="#115e59" />
  <circle cx="440" cy="280" r="10" fill="#f43f5e" />
  <text x="460" y="285" font-family="Arial" font-size="14" fill="#f0fdfa">Supermercado</text>
  <text x="680" y="285" font-family="Arial" font-size="14" fill="#f0fdfa" text-anchor="end">R$ 800</text>
  
  <!-- Footer -->
  <rect x="60" y="350" width="680" height="30" rx="4" fill="#115e59" />
  <text x="400" y="370" font-family="Arial" font-size="14" fill="#94a3b8" text-anchor="middle">Controle suas finanças</text>
</svg>