<svg width="800" height="400" viewBox="0 0 800 400" xmlns="http://www.w3.org/2000/svg">
  <rect width="800" height="400" fill="#1e3a8a" />
  <rect x="40" y="40" width="720" height="320" rx="8" fill="#1e293b" />
  
  <!-- API Endpoints -->
  <rect x="60" y="60" width="680" height="60" rx="4" fill="#334155" />
  <text x="80" y="100" font-family="monospace" font-size="24" fill="#f8fafc">API Documentation</text>
  
  <!-- Endpoints -->
  <rect x="60" y="140" width="680" height="50" rx="4" fill="#475569" />
  <rect x="70" y="150" width="60" height="30" rx="4" fill="#22c55e" />
  <text x="85" y="170" font-family="monospace" font-size="14" fill="#f8fafc">GET</text>
  <text x="140" y="170" font-family="monospace" font-size="14" fill="#f8fafc">/api/users</text>
  <rect x="300" y="150" width="100" height="30" rx="4" fill="#0ea5e9" />
  <text x="320" y="170" font-family="monospace" font-size="14" fill="#f8fafc">Response</text>
  
  <rect x="60" y="200" width="680" height="50" rx="4" fill="#475569" />
  <rect x="70" y="210" width="60" height="30" rx="4" fill="#f59e0b" />
  <text x="85" y="230" font-family="monospace" font-size="14" fill="#f8fafc">POST</text>
  <text x="140" y="230" font-family="monospace" font-size="14" fill="#f8fafc">/api/users</text>
  <rect x="300" y="210" width="100" height="30" rx="4" fill="#0ea5e9" />
  <text x="320" y="230" font-family="monospace" font-size="14" fill="#f8fafc">Response</text>
  
  <rect x="60" y="260" width="680" height="50" rx="4" fill="#475569" />
  <rect x="70" y="270" width="60" height="30" rx="4" fill="#3b82f6" />
  <text x="85" y="290" font-family="monospace" font-size="14" fill="#f8fafc">PUT</text>
  <text x="140" y="290" font-family="monospace" font-size="14" fill="#f8fafc">/api/users/{id}</text>
  <rect x="300" y="270" width="100" height="30" rx="4" fill="#0ea5e9" />
  <text x="320" y="290" font-family="monospace" font-size="14" fill="#f8fafc">Response</text>
  
  <rect x="60" y="320" width="680" height="30" rx="4" fill="#334155" />
  <text x="350" y="340" font-family="monospace" font-size="14" fill="#94a3b8">Spring Boot API</text>
  
  <!-- Java Logo -->
  <g transform="translate(650, 80) scale(0.5)">
    <path d="M67.6,126.2c0,0-6.6,3.9,4.7,5.2c13.7,1.6,20.8,1.4,35.9-1.5c0,0,4,2.5,9.6,4.7C88.1,155.9,44.8,137.5,67.6,126.2" fill="#f8981d"/>
    <path d="M65.1,108.1c0,0-7.4,5.5,3.9,6.7c14.6,1.5,26.2,1.7,46.3-2.3c0,0,2.8,2.8,7.1,4.4C85.5,134.6,40.3,119.5,65.1,108.1" fill="#f8981d"/>
    <path d="M101.6,82.7c8.4,9.6-2.2,18.3-2.2,18.3s21.3-11,11.5-24.8c-9.1-12.8-16-19.2,21.6-41.1C132.5,35.1,77.3,51.5,101.6,82.7" fill="#f8981d"/>
    <path d="M167.8,138.1c0,0,4.9,4-5.4,7.2c-19.5,5.8-81.4,7.7-98.5,0.2c-6.2-2.6,5.4-6.2,9-7c3.8-0.8,5.9-0.7,5.9-0.7c-6.8-4.8-44,9.4-18.9,13.5C126.7,161.4,183.6,145.1,167.8,138.1" fill="#f8981d"/>
    <path d="M70.4,90.2c0,0-31.2,7.4-11.1,10.1c8.5,1.1,25.5,0.9,41.3-0.4c12.9-1.1,25.9-3.5,25.9-3.5s-4.6,2-7.8,4.2c-31.7,8.3-92.9,4.4-75.3-4.1C59.1,89.9,70.4,90.2,70.4,90.2" fill="#f8981d"/>
    <path d="M145.9,117.4c32.2-16.7,17.3-32.8,6.9-30.7c-2.5,0.5-3.7,1-3.7,1s0.9-1.4,2.8-2.1c20.8-7.3,36.8,21.4-6.6,32.7C145.3,118.4,145.9,117.4,145.9,117.4" fill="#f8981d"/>
    <path d="M122.8,0c0,0,17.8,17.8-16.9,45.3c-27.9,22-6.4,34.5,0,48.8c-16.2-14.6-28.2-27.5-20.2-39.5C97.1,37.3,131.5,28.6,122.8,0" fill="#5382a1"/>
    <path d="M81.5,161.8c30.9,2,78.4-1.1,79.5-15.7c0,0-2.2,5.5-25.5,9.9c-26.4,5-58.9,4.4-78.2,1.2C57.3,157.2,61.5,160.3,81.5,161.8" fill="#5382a1"/>
  </g>
</svg>