<svg width="800" height="400" viewBox="0 0 800 400" xmlns="http://www.w3.org/2000/svg">
  <rect width="800" height="400" fill="#4338ca" />
  <rect x="40" y="40" width="720" height="320" rx="8" fill="#312e81" />
  
  <!-- Header -->
  <rect x="60" y="60" width="680" height="60" rx="4" fill="#4f46e5" />
  <text x="80" y="100" font-family="Arial" font-size="24" font-weight="bold" fill="#e0e7ff">Task Manager</text>
  
  <!-- Kanban Board -->
  <rect x="60" y="140" width="680" height="200" rx="4" fill="#3730a3" />
  
  <!-- To Do Column -->
  <rect x="80" y="160" width="200" height="160" rx="4" fill="#4338ca" />
  <rect x="90" y="170" width="180" height="30" rx="4" fill="#6366f1" />
  <text x="100" y="190" font-family="Arial" font-size="14" fill="#e0e7ff">A Fazer</text>
  
  <!-- Task Cards -->
  <rect x="90" y="210" width="180" height="40" rx="4" fill="#818cf8" />
  <text x="100" y="235" font-family="Arial" font-size="12" fill="#1e1b4b">Implementar Login</text>
  
  <rect x="90" y="260" width="180" height="40" rx="4" fill="#818cf8" />
  <text x="100" y="285" font-family="Arial" font-size="12" fill="#1e1b4b">Criar Dashboard</text>
  
  <!-- In Progress Column -->
  <rect x="300" y="160" width="200" height="160" rx="4" fill="#4338ca" />
  <rect x="310" y="170" width="180" height="30" rx="4" fill="#6366f1" />
  <text x="320" y="190" font-family="Arial" font-size="14" fill="#e0e7ff">Em Progresso</text>
  
  <!-- Task Cards -->
  <rect x="310" y="210" width="180" height="40" rx="4" fill="#818cf8" />
  <text x="320" y="235" font-family="Arial" font-size="12" fill="#1e1b4b">API de Usuários</text>
  
  <!-- Done Column -->
  <rect x="520" y="160" width="200" height="160" rx="4" fill="#4338ca" />
  <rect x="530" y="170" width="180" height="30" rx="4" fill="#6366f1" />
  <text x="540" y="190" font-family="Arial" font-size="14" fill="#e0e7ff">Concluído</text>
  
  <!-- Task Cards -->
  <rect x="530" y="210" width="180" height="40" rx="4" fill="#818cf8" />
  <text x="540" y="235" font-family="Arial" font-size="12" fill="#1e1b4b">Setup do Projeto</text>
  
  <rect x="530" y="260" width="180" height="40" rx="4" fill="#818cf8" />
  <text x="540" y="285" font-family="Arial" font-size="12" fill="#1e1b4b">Design de Interface</text>
  
  <!-- Footer -->
  <rect x="60" y="350" width="680" height="30" rx="4" fill="#4f46e5" />
  <text x="400" y="370" font-family="Arial" font-size="14" fill="#c7d2fe" text-anchor="middle">Gerencie seus projetos com eficiência</text>
</svg>